Coordinates
version=1
nRows=65
nColumns=12
inDegrees=yes

Units are S.I. units (second, meters, Newtons, ...)
Angles are in degrees

endheader
time	SC_y	SC_z	SC_x	AC_y	AC_z	AC_x	GH_y	GH_z	GH_yy	EL_x	PS_y
       0.0              -17.99          22.32          76.95          65.42         -15.79         -17.79         -72.67          54.26         -4.979          18.23          10.56
  0.005476               -18.0          22.32          76.94          65.42         -15.79         -17.78         -72.67          54.26         -4.982          18.24          10.57
   0.01095               -18.0          22.32          76.93          65.42         -15.79         -17.78         -72.66          54.26         -4.985          18.25          10.57
   0.01643              -18.01          22.32          76.92          65.41         -15.79         -17.78         -72.66          54.26         -4.988          18.26          10.58
    0.0219              -18.02          22.32          76.91          65.41         -15.78         -17.77         -72.65          54.26         -4.991          18.27          10.59
   0.02738              -18.02          22.32           76.9          65.41         -15.78         -17.77         -72.65          54.26         -4.995          18.28          10.59
   0.03286              -18.03          22.32          76.89          65.41         -15.78         -17.76         -72.64          54.26         -4.999           18.3           10.6
   0.03833              -18.04          22.32          76.88           65.4         -15.77         -17.75         -72.63          54.27         -5.003          18.31          10.61
   0.04381              -18.04          22.32          76.86           65.4         -15.77         -17.75         -72.63          54.27         -5.008          18.32          10.62
   0.04929              -18.05          22.32          76.85           65.4         -15.77         -17.74         -72.62          54.27         -5.013          18.34          10.63
   0.05476              -18.06          22.32          76.83          65.39         -15.76         -17.73         -72.61          54.27         -5.018          18.36          10.64
   0.06024              -18.07          22.32          76.82          65.39         -15.76         -17.73          -72.6          54.28         -5.023          18.38          10.65
   0.06571              -18.08          22.32           76.8          65.38         -15.75         -17.72          -72.6          54.28         -5.029           18.4          10.66
   0.07119              -18.09          22.32          76.78          65.38         -15.75         -17.71         -72.59          54.28         -5.036          18.42          10.68
   0.07667               -18.1          22.32          76.76          65.37         -15.74          -17.7         -72.58          54.28         -5.043          18.44          10.69
   0.08214              -18.12          22.32          76.73          65.37         -15.74         -17.69         -72.56          54.29          -5.05          18.47          10.71
   0.08762              -18.13          22.32          76.71          65.36         -15.73         -17.68         -72.55          54.29         -5.059           18.5          10.72
   0.09309              -18.15          22.32          76.68          65.35         -15.72         -17.67         -72.54           54.3         -5.068          18.53          10.74
   0.09857              -18.16          22.32          76.65          65.34         -15.72         -17.65         -72.52           54.3         -5.078          18.56          10.76
     0.104              -18.18          22.32          76.62          65.34         -15.71         -17.64         -72.51          54.31         -5.088           18.6          10.78
    0.1095               -18.2          22.33          76.58          65.33          -15.7         -17.62         -72.49          54.31           -5.1          18.64          10.81
     0.115              -18.22          22.33          76.54          65.32         -15.69          -17.6         -72.47          54.32         -5.113          18.68          10.83
    0.1205              -18.25          22.33           76.5          65.31         -15.68         -17.58         -72.45          54.32         -5.128          18.73          10.86
     0.126              -18.28          22.33          76.45          65.29         -15.66         -17.56         -72.43          54.33         -5.144          18.79           10.9
    0.1314              -18.31          22.33          76.39          65.28         -15.65         -17.54          -72.4          54.34         -5.161          18.85          10.93
    0.1369              -18.34          22.33          76.33          65.26         -15.63         -17.51         -72.37          54.35         -5.181          18.91          10.97
    0.1424              -18.38          22.33          76.27          65.25         -15.62         -17.48         -72.34          54.36         -5.203          18.99          11.02
    0.1479              -18.42          22.33          76.19          65.23          -15.6         -17.45          -72.3          54.37         -5.228          19.07          11.07
    0.1533              -18.47          22.34           76.1          65.21         -15.57         -17.41         -72.26          54.38         -5.256          19.17          11.12
    0.1588              -18.52          22.34          76.01          65.18         -15.55         -17.36         -72.21           54.4         -5.288          19.28          11.19
    0.1643              -18.59          22.34          75.89          65.15         -15.52         -17.31         -72.16          54.41         -5.325           19.4          11.26
    0.1698              -18.66          22.34          75.77          65.12         -15.49         -17.26         -72.09          54.43         -5.367          19.55          11.35
    0.1752              -18.74          22.35          75.62          65.08         -15.45         -17.19         -72.02          54.46         -5.415          19.71          11.45
    0.1807              -18.84          22.35          75.45          65.04          -15.4         -17.11         -71.94          54.48         -5.471           19.9          11.56
    0.1862              -18.95          22.36          75.25          64.99         -15.35         -17.02         -71.84          54.51         -5.537          20.13          11.69
    0.1917              -19.08          22.36          75.01          64.93         -15.29         -16.91         -71.72          54.55         -5.614          20.39          11.85
    0.1971              -19.24          22.37          74.73          64.86         -15.22         -16.79         -71.59          54.59         -5.706           20.7          12.04
    0.2026              -19.43          22.38          74.39          64.77         -15.13         -16.64         -71.42          54.64         -5.817          21.08          12.26
    0.2081              -19.66          22.39          73.98          64.67         -15.03         -16.45         -71.22           54.7          -5.95          21.53          12.53
    0.2136              -19.94           22.4          73.49          64.54          -14.9         -16.23         -70.98          54.78         -6.113          22.09          12.86
     0.219              -20.28          22.41          72.87          64.38         -14.74         -15.95         -70.68          54.87         -6.314          22.77          13.27
    0.2245              -20.71          22.43           72.1          64.19         -14.54         -15.61          -70.3          54.98         -6.565          23.63          13.78
      0.23              -21.25          22.45          71.14          63.94         -14.29         -15.17         -69.83          55.13         -6.882          24.71          14.42
    0.2355              -21.94          22.48          69.91          63.63         -13.97         -14.62         -69.23          55.31         -7.283          26.08          15.24
     0.241              -22.82          22.52          68.34          63.23         -13.57         -13.91         -68.46          55.55         -7.798          27.83          16.28
    0.2464              -23.95          22.57          66.32          62.72         -13.05          -13.0         -67.48          55.85         -8.458          30.08          17.62
    0.2519              -25.39          22.63          63.74          62.06         -12.38         -11.85         -66.22          56.24         -9.301          32.95          19.33
    0.2574              -27.21          22.71           60.5          61.24         -11.54         -10.39         -64.64          56.72         -10.36          36.56          21.49
    0.2629              -29.42           22.8          56.55          60.24         -10.52         -8.611         -62.71          57.32         -11.65          40.96          24.11
    0.2683              -31.99          22.91          51.98          59.07         -9.338         -6.552         -60.47           58.0         -13.15          46.06          27.15
    0.2738              -34.76          23.02          47.02          57.81         -8.057         -4.322         -58.05          58.75         -14.77          51.58          30.44
    0.2793              -37.54          23.14          42.07          56.55         -6.776         -2.092         -55.63          59.49         -16.39          57.11          33.73
    0.2848               -40.1          23.25          37.49          55.39         -5.593       -0.03292         -53.39          60.18         -17.89          62.21          36.77
    0.2902              -42.32          23.34          33.54          54.39         -4.572          1.744         -51.46          60.77         -19.18          66.61           39.4
    0.2957              -44.13          23.42           30.3          53.56         -3.735          3.201         -49.88          61.26         -20.24          70.22          41.55
    0.3012              -45.58          23.48          27.72          52.91         -3.069          4.361         -48.62          61.64         -21.09          73.09          43.26
    0.3067              -46.71          23.53          25.71          52.39         -2.547          5.269         -47.64          61.94         -21.75          75.34           44.6
    0.3121              -47.59          23.57          24.14          51.99         -2.141          5.976         -46.87          62.18         -22.26          77.09          45.64
    0.3176              -48.28          23.59          22.91          51.68         -1.824          6.528         -46.27          62.36         -22.66          78.46          46.46
    0.3231              -48.82          23.62          21.94          51.44         -1.574          6.963          -45.8          62.51         -22.98          79.54           47.1
    0.3286              -49.25          23.64          21.17          51.24         -1.376          7.308         -45.42          62.62         -23.23          80.39          47.61
     0.334              -49.59          23.65          20.56          51.08         -1.217          7.585         -45.12          62.72         -23.43          81.08          48.02
    0.3395              -49.87          23.66          20.06          50.96         -1.088          7.809         -44.88          62.79          -23.6          81.63          48.35
     0.345               -50.1          23.67          19.65          50.85        -0.9825          7.993         -44.68          62.85         -23.73          82.09          48.62
    0.3505              -50.29          23.68          19.32          50.77        -0.8954          8.144         -44.51           62.9         -23.84          82.46          48.85
